# xmcd
# Copyright (C) 1995-1998 Ti Kan
#
# Track frame offsets:
#       150
#       21048
#       32091
#       44273
#       64146
#       81116
#       97539
#       108077
#       143528
#       158433
#       176915
#       205589
#       218560
#       230056
#       245214
#       257329
#       274409
#       290362
#
# Disc length: 3960 seconds
#
# Revision: 0
# Processed by: cddbd v1.5.2PL0 Copyright (c) Steve Scherf et al.
# Submitted via: CD-Transfer v1.0
#
DISCID=ed0f7612
DTITLE=Melanie - Melanie Safka
DYEAR=1900
DGENRE=
TTITLE0=Lay Down (Candles In The Rain)
TTITLE1=Good Book, The
TTITLE2=Beautiful People
TTITLE3=What Have They Done To My Song, Ma?
TTITLE4=Nickel Song, The
TTITLE5=Animal Crackers
TTITLE6=Momma, Momma
TTITLE7=Lovin' Baby Girl
TTITLE8=Ruby Tuesday
TTITLE9=Peace Will Come (According To Plan)
TTITLE10=Ring The Living Bell
TTITLE11=Some Say (I Got Devil)
TTITLE12=Brand New Key
TTITLE13=Together Alone
TTITLE14=Bitter Bad
TTITLE15=Love To Lose Again
TTITLE16=Bobo's Party
TTITLE17=Leftover Wine
EXTD=
EXTT0=
EXTT1=
EXTT2=
EXTT3=
EXTT4=
EXTT5=
EXTT6=
EXTT7=
EXTT8=
EXTT9=
EXTT10=
EXTT11=
EXTT12=
EXTT13=
EXTT14=
EXTT15=
EXTT16=
EXTT17=
PLAYORDER=
